<?xml version="1.0" encoding="UTF-8" standalone="no"?><svg xmlns:dc="http://purl.org/dc/elements/1.1/" xmlns:cc="http://creativecommons.org/ns#" xmlns:rdf="http://www.w3.org/1999/02/22-rdf-syntax-ns#" xmlns:svg="http://www.w3.org/2000/svg" xmlns="http://www.w3.org/2000/svg"
   width="1077"
   height="147"
   viewBox="0 0 284.95626 38.893751"
   version="1.1"
   id="svg5"><title
     id="title19">星見プロダクション Name</title><metadata
     id="metadata23"><rdf:RDF><cc:Work
         rdf:about=""><dc:format>image/svg+xml</dc:format><dc:type
           rdf:resource="http://purl.org/dc/dcmitype/StillImage" /><dc:title>星見プロダクション Name</dc:title><dc:creator><cc:Agent><dc:title>765プロダクション星見支社</dc:title></cc:Agent></dc:creator><dc:rights><cc:Agent><dc:title>© 2019 Project IDOLY PRIDE</dc:title></cc:Agent></dc:rights><dc:publisher><cc:Agent><dc:title>765プロダクション星見支社</dc:title></cc:Agent></dc:publisher><cc:license
           rdf:resource="http://creativecommons.org/licenses/by-nc/4.0/" /></cc:Work><cc:License
         rdf:about="http://creativecommons.org/licenses/by-nc/4.0/"><cc:permits
           rdf:resource="http://creativecommons.org/ns#Reproduction" /><cc:permits
           rdf:resource="http://creativecommons.org/ns#Distribution" /><cc:requires
           rdf:resource="http://creativecommons.org/ns#Notice" /><cc:requires
           rdf:resource="http://creativecommons.org/ns#Attribution" /><cc:prohibits
           rdf:resource="http://creativecommons.org/ns#CommercialUse" /><cc:permits
           rdf:resource="http://creativecommons.org/ns#DerivativeWorks" /></cc:License></rdf:RDF></metadata><defs
     id="defs2"><rect
       x="669"
       y="72"
       width="824"
       height="156"
       id="rect8483" /><rect
       x="396.66666"
       y="78"
       width="281.66666"
       height="142"
       id="rect24819" /></defs><g
     id="Hoshimi_Production_name"><path
       id="ン "
       d="m 278.33144,11.297519 h 6.48229 c -1.38758,5.078579 -2.70853,9.503196 -5.0397,12.694651 -2.33114,3.191454 -4.75943,5.661363 -7.28485,7.409727 -2.49764,1.720612 -4.87043,2.941691 -7.11833,3.663239 -2.2479,0.721545 -4.09339,1.137822 -5.53648,1.248831 -1.41534,0.138758 -2.13688,0.194262 -2.16464,0.16651 v -6.785314 c 0.0278,0.02775 0.59666,0.01386 1.70675,-0.04163 1.11006,-0.08326 2.5254,-0.37465 4.24601,-0.874183 1.74836,-0.499531 3.58,-1.456968 5.49486,-2.872309 1.91487,-1.415341 3.67713,-3.205332 5.28672,-5.369973 1.63735,-2.19239 2.67854,-5.465308 3.92737,-9.239552 z M 257.66973,11.087585 V 4.418352 h 12.98784 v 6.669233 z"
       style="fill:#0091cd;fill-opacity:1" /><path
       id="ョ"
       d="m 234.39031,26.45734 v -4.286964 h 12.89545 v -4.258273 h -13.40432 v -4.419378 h 18.14074 V 35.639186 H 233.88144 V 31.14127 h 13.40432 v -4.68393 z"
       style="fill:#0091cd;fill-opacity:1" /><path
       id="シ"
       d="m 223.93311,11.454827 6.37646,1.19e-4 c -1.38761,5.07858 -2.6869,9.742644 -5.01804,12.934099 -2.33116,3.191454 -4.75943,5.661363 -7.28485,7.409727 -2.49767,1.720612 -4.87045,2.941691 -7.11832,3.663239 -2.2479,0.721545 -4.0934,1.137822 -5.53649,1.248831 -1.41534,0.138758 -2.16466,0.16651 -2.16466,0.16651 v -7.257437 c 0,0 0.59669,-0.01066 1.70675,-0.06614 1.11006,-0.08326 2.52542,-0.161925 4.24603,-0.661459 1.74834,-0.49953 3.57997,-1.173051 5.49484,-2.588392 1.91487,-1.415341 3.67713,-3.205332 5.28672,-5.369973 1.63737,-2.19239 2.76275,-5.704875 4.01156,-9.479119 z m -20.7459,-0.42827 V 4.49101 h 12.19692 v 6.535547 z m 0,9.266796 v -6.35 h 12.19692 v 6.35 z"
       style="fill:#0091cd;fill-opacity:1" /><path
       id="ク"
       d="m 178.05436,3.360019 h 6.78704 c -0.111,0.77705 -0.24977,0.852531 -0.41627,1.574078 -0.16651,0.721547 -0.33303,1.199463 -0.49954,1.865505 h 13.97252 v 6.584916 c -0.30528,3.607734 -0.79111,7.010855 -2.06769,9.786036 -1.27659,2.747425 -3.18723,4.956281 -4.9911,6.732394 -1.77613,1.776116 -3.5019,3.205335 -5.38901,4.287653 -1.85936,1.08232 -3.81939,1.995543 -5.45677,2.633834 -1.60959,0.638292 -3.03363,0.856777 -4.06045,1.078791 -1.02682,0.249767 -1.55411,0.360773 -1.58187,0.333021 v -6.743685 c 0.0278,0.02775 0.56894,-0.09713 1.62349,-0.37465 1.08233,-0.305268 2.40053,-0.832554 3.95464,-1.581851 1.55409,-0.749297 3.17757,-1.887122 4.87043,-3.413472 1.69285,-1.526347 3.05271,-3.288585 4.07953,-5.286716 1.05455,-1.998128 1.76223,-4.537417 2.12299,-7.617865 h -9.61599 c -1.60959,2.497661 -3.17757,4.523542 -4.70392,6.077641 -1.52636,1.554101 -2.80295,2.921989 -3.82977,3.643537 -0.99904,0.721548 -1.8865,1.086086 -1.94201,1.058333 v -7.9375 c 0.0277,0 1.0047,-0.5588 1.5875,-1.058333 0.61052,-0.527286 1.28378,-1.395156 2.06084,-2.532978 0.77705,-1.137822 1.3676,-2.483784 2.08915,-4.037886 0.74927,-1.581851 0.98999,-2.822908 1.40626,-5.070803 z"
       style="fill:#0091cd;fill-opacity:1" /><path
       id="ダ"
       d="m 160.85644,0.581894 -2.64583,2.645833 2.64583,2.645834 2.64583,-2.645834 z m 2.64583,2.645833 2.77813,2.645834 2.51354,-2.645834 -2.51354,-2.645833 z m -17.21548,0.252181 c -0.41628,2.247895 -0.99892,4.190713 -1.74822,5.828069 -0.72155,1.609603 -1.48498,2.955158 -2.28978,4.037478 -0.77705,1.082318 -1.47047,1.887556 -2.08101,2.414842 -0.58279,0.499533 -0.88847,0.749308 -0.91622,0.749308 v 8.034134 c 0.0555,0.02775 0.59685,-0.333323 1.62367,-1.08262 1.02682,-0.7493 2.34519,-1.886881 3.9548,-3.413228 1.6096,-1.554102 3.27443,-3.926975 4.99504,-7.11843 h 9.78235 c -0.0833,1.526347 -0.34662,3.094501 -0.79065,4.704107 h -10.19886 v 6.202204 h 7.70134 c -1.33209,1.748364 -2.78946,3.177521 -4.37131,4.287594 -1.58185,1.08232 -3.1082,1.928842 -4.57905,2.539381 -1.44309,0.610539 -2.63607,1.040593 -3.57963,1.29036 v 6.783049 c 0.0558,-0.01312 0.10735,-0.0253 0.1664,-0.03928 1.05457,-0.222015 2.42834,-0.652068 4.1212,-1.29036 1.69286,-0.638291 3.51079,-1.554311 5.45341,-2.747637 1.94263,-1.221079 3.85723,-2.76102 5.74435,-4.62039 1.88712,-1.887122 3.45528,-4.232299 4.70412,-7.035228 1.27658,-2.80293 2.08129,-6.105409 2.41432,-9.907406 V 6.726739 H 152.1562 c 0.0277,-0.0555 0.11135,-0.402472 0.25011,-1.040764 0.13876,-0.666043 0.27724,-1.401265 0.416,-2.206067 z"
       style="fill:#0091cd;fill-opacity:1" /><path
       id="ロ"
       d="M 133.37484,36.672038 H 107.19102 V 6.20057 h 26.18382 z M 126.5479,12.736117 h -12.57156 v 17.400374 h 12.57156 z"
       style="fill:#0091cd;fill-opacity:1" /><path
       id="プ"
       d="m 100.18676,1.7e-5 c -1.41534,0 -2.60883,0.485446 -3.58015,1.456759 -0.97131,0.999065 -1.45675,2.20666 -1.45675,3.622001 0,0.137913 0.006,0.273003 0.015,0.406694 H 74.49584 v 6.660575 h 19.10684 c -0.13876,3.55223 -0.7214,6.480048 -1.74821,8.783444 -1.02682,2.275647 -2.35879,4.093057 -3.99614,5.452896 -1.6096,1.359837 -3.23315,2.358943 -4.8705,2.997235 -1.63736,0.610539 -3.56607,1.082397 -5.78621,1.415418 v 6.660573 c 0.0277,0.02775 0.56858,-0.04174 1.62315,-0.208256 1.08232,-0.138761 2.4702,-0.485728 4.16306,-1.040763 1.69286,-0.527283 3.48257,-1.317897 5.36969,-2.372466 1.88713,-1.054568 3.67736,-2.525527 5.37022,-4.412649 1.69286,-1.914872 3.16382,-4.343136 4.41265,-7.284826 1.24883,-2.941691 1.87338,-6.452145 1.87327,-10.531658 v -1.492933 c 0.0575,0.0016 0.1149,0.0036 0.17312,0.0036 1.41534,0 2.60831,-0.48596 3.57962,-1.457275 0.99907,-0.971311 1.49862,-2.164284 1.49862,-3.579626 0,-1.415341 -0.49955,-2.608831 -1.49862,-3.580143 C 102.79509,0.499552 101.60212,0 100.18678,0 Z m 0,2.788977 c 0.63829,0 1.17913,0.222081 1.62315,0.66611 0.44403,0.416276 0.66611,0.95763 0.66611,1.623673 0,0.638292 -0.22208,1.179127 -0.66611,1.623157 -0.44402,0.416277 -0.98486,0.624769 -1.62315,0.624769 -0.29566,0 -0.5697,-0.04703 -0.82373,-0.136427 L 99.10362,7.082273 h -5.3e-4 C 98.90938,6.984673 98.72947,6.85793 98.56307,6.701934 98.1468,6.257904 97.93882,5.717069 97.93882,5.078777 c 0,-0.666043 0.20798,-1.207397 0.62425,-1.623673 0.44403,-0.444029 0.98539,-0.66611 1.62368,-0.66611 z"
       style="fill:#0091cd;fill-opacity:1" /><path
       id="见"
       d="m 65.28851,31.991106 q 0.59267,0 0.889,-0.333375 0.29633,-0.333375 0.40746,-1.3335 0.14816,-1.000125 0.25929,-3.185583 0.74083,0.629708 2.18546,1.222375 1.48166,0.592667 2.74108,0.926042 -0.29633,3.1115 -0.92604,4.778375 -0.62971,1.666875 -1.81504,2.333625 -1.14829,0.66675 -3.22263,0.66675 h -4.29683 q -2.48179,0 -3.77825,-0.629708 -1.29646,-0.592667 -1.81504,-1.963209 -0.51859,-1.370542 -0.51859,-3.889375 v -5.037667 h -3.556 q -0.37041,3.259667 -1.48166,5.482167 -1.11125,2.185458 -3.70417,3.852334 -2.59292,1.666875 -7.22312,2.704041 -0.37042,-1.074208 -1.25942,-2.518833 -0.889,-1.407584 -1.74096,-2.296584 3.70417,-0.66675 5.70442,-1.629833 2.00025,-0.963083 2.81516,-2.259542 0.81492,-1.296458 1.11125,-3.33375 H 41.80409 V 3.246772 h 24.85496 v 22.299084 h -5.74146 v 5.000625 q 0,0.963084 0.22225,1.222375 0.25929,0.22225 1.18534,0.22225 z M 46.98993,7.914023 V 9.358648 H 61.17688 V 7.914023 Z m 0,5.741458 v 1.444625 h 14.18695 v -1.444625 z m 0,5.7785 v 1.444625 h 14.18695 v -1.444625 z"
       style="fill:#0091cd;fill-opacity:1" /><path
       id="星"
       d="m 34.04129,32.584271 v 4.693211 H 1.00012 V 32.584271 H 14.85371 V 30.881089 H 5.70442 V 27.399032 Q 5.29696,27.853214 4.48204,28.610181 3.70417,27.853214 2.29658,26.831305 0.92604,25.771549 0,25.203821 1.74096,23.879121 3.25967,21.9867 4.81542,20.094275 5.81554,18.050459 H 4.445 V 3.516647 H 30.26304 V 18.050459 H 8.14917 l 3.22262,0.946211 q -0.25929,0.643427 -0.77787,1.551789 h 4.25979 V 18.656035 H 20.447 v 1.892424 h 11.18658 v 4.503968 H 20.447 v 1.627484 h 9.44562 v 4.201178 H 20.447 v 1.703182 z M 9.74196,7.642131 V 8.853283 H 24.66975 V 7.642131 Z m 0,5.033847 v 1.248997 h 14.92779 v -1.248997 z m 5.11175,14.003933 V 25.052427 H 7.70467 l -1.3335,1.627484 z"
       style="fill:#0091cd;fill-opacity:1" /></g></svg>
