<?xml version="1.0" encoding="UTF-8" standalone="no"?><svg xmlns:dc="http://purl.org/dc/elements/1.1/" xmlns:cc="http://creativecommons.org/ns#" xmlns:rdf="http://www.w3.org/1999/02/22-rdf-syntax-ns#" xmlns:svg="http://www.w3.org/2000/svg" xmlns="http://www.w3.org/2000/svg"
   width="300"
   height="203.5"
   version="1.1"
   id="svg5"><title
     id="title8">星見プロダクション Logo</title><metadata
     id="metadata23"><rdf:RDF><cc:Work
         rdf:about=""><dc:title>星見プロダクション Logo</dc:title><dc:format>image/svg+xml</dc:format><dc:type
           rdf:resource="http://purl.org/dc/dcmitype/StillImage" /><cc:license
           rdf:resource="http://creativecommons.org/licenses/by-nc/4.0/" /><dc:creator><cc:Agent><dc:title>765プロダクション星見支社</dc:title></cc:Agent></dc:creator><dc:rights><cc:Agent><dc:title>© 2019 Project IDOLY PRIDE</dc:title></cc:Agent></dc:rights><dc:publisher><cc:Agent><dc:title>765プロダクション星見支社</dc:title></cc:Agent></dc:publisher></cc:Work><cc:License
         rdf:about="http://creativecommons.org/licenses/by-nc/4.0/"><cc:permits
           rdf:resource="http://creativecommons.org/ns#Reproduction" /><cc:permits
           rdf:resource="http://creativecommons.org/ns#Distribution" /><cc:requires
           rdf:resource="http://creativecommons.org/ns#Notice" /><cc:requires
           rdf:resource="http://creativecommons.org/ns#Attribution" /><cc:prohibits
           rdf:resource="http://creativecommons.org/ns#CommercialUse" /><cc:permits
           rdf:resource="http://creativecommons.org/ns#DerivativeWorks" /></cc:License></rdf:RDF></metadata><defs
     id="defs2" /><path
     id="Hoshimi_Production_logo"
     d="M 147.6,202.3 1.5,104.5 c -1.87946776,-1.25812 -2.08830705,-4.19951 0,-5.6 L 148.6,0.25 c 0.61225,-0.41059285 2.1268,-0.3838867 2.7,0 L 298.6,98.9 c 2.23909,1.49957 1.61252,4.52131 0,5.6 l -146.2,97.8 c -1.76748,1.18235 -2.98183,1.21709 -4.8,0 z m 4,-18.7 108.2,-80.2 c 0.893,-0.66191 1.06166,-2.6121 0,-3.4 L 151.6,19.7 c -1.22615,-0.909979 -2.18269,-0.829969 -3.3,0 L 40.2,100 c -1.079422,0.80183 -0.936009,2.70557 0,3.4 l 108.1,80.2 c 1.28131,0.95061 1.93346,1.01291 3.3,0 z m -2.8,-19.9 -76.8,-61 c -0.758813,-0.6027 -0.765506,-1.39098 0,-2 l 76.8,-61.1 c 1.11132,-0.884134 1.20418,-0.870669 2.3,0 l 76.9,61.1 c 0.5547,0.44073 0.79714,1.36768 0,2 l -76.9,61 c -1.08413,0.85997 -1.00062,1.03206 -2.3,0 z m -13.8,-34.9 15.4,-8.6 15.1,8.4 c 4.01551,2.23379 6.43863,0.0839 5.9,-3.2 l -3.1,-18.9 13.1,-13.4 c 2.22873,-2.279775 1.33497,-5.450934 -1.6,-5.9 l -18.3,-2.8 -7.9,-16.9 c -1.56907,-3.356611 -4.96095,-3.286925 -6.5,0 L 139.21493,84.340024 121.5,87.1 c -3.15672,0.491816 -4.62891,3.282682 -1.8,6.2 l 12.8,13.2 -3,18.6 c -0.57835,3.58579 1.6253,5.86379 5.5,3.7 z"
     style="fill:#0091cd" /></svg>
